# xmcd
#
# Track frame offsets:
#	180
#	14226
#	39446
#	53525
#	68538
#	83556
#	98525
#	121816
#	139618
#	157310
#
# Disc length: 2279 seconds
#
# Revision: 0
# Processed by: cddbd v1.5.1PL0 Copyright (c) Steve Scherf et al.
# Submitted via: dBpowerAMP V4.0
#
DISCID=7608e50a
DTITLE=R.P.M. - On The Rocks
DYEAR=1900
DGENRE=Country
TTITLE0=Summerfly
TTITLE1=Harvest Moon
TTITLE2=Blue Skies
TTITLE3=Cheeseburger In Paradise
TTITLE4=The Sound of Silence
TTITLE5=Mexico
TTITLE6=Wonderful Tonight
TTITLE7=Copperline
TTITLE8=Rocky Top
TTITLE9=Homeward Bound
EXTD=
EXTT0=
EXTT1=
EXTT2=
EXTT3=
EXTT4=
EXTT5=
EXTT6=
EXTT7=
EXTT8=
EXTT9=
PLAYORDER=
